<mxfile host="app.diagrams.net" agent="Mozilla/5.0 (Windows NT 6.3; Win64; x64) AppleWebKit/537.36 (KHTML, like Gecko) Chrome/77.0.3865.90 Safari/537.36" version="24.7.17">
  <diagram id="C5RBs43oDa-KdzZeNtuy" name="Page-1">
    <mxGraphModel dx="1114" dy="616" grid="1" gridSize="10" guides="1" tooltips="1" connect="1" arrows="1" fold="1" page="1" pageScale="1" pageWidth="827" pageHeight="1169" math="0" shadow="0">
      <root>
        <mxCell id="WIyWlLk6GJQsqaUBKTNV-0" />
        <mxCell id="WIyWlLk6GJQsqaUBKTNV-1" parent="WIyWlLk6GJQsqaUBKTNV-0" />
        <mxCell id="YFLFi1sk_Lv0sUjGk2Iw-10" style="edgeStyle=orthogonalEdgeStyle;rounded=0;orthogonalLoop=1;jettySize=auto;html=1;exitX=0.5;exitY=1;exitDx=0;exitDy=0;entryX=0.5;entryY=0;entryDx=0;entryDy=0;" edge="1" parent="WIyWlLk6GJQsqaUBKTNV-1" source="YFLFi1sk_Lv0sUjGk2Iw-0" target="YFLFi1sk_Lv0sUjGk2Iw-3">
          <mxGeometry relative="1" as="geometry" />
        </mxCell>
        <mxCell id="YFLFi1sk_Lv0sUjGk2Iw-0" value="INICIO" style="rounded=1;whiteSpace=wrap;html=1;" vertex="1" parent="WIyWlLk6GJQsqaUBKTNV-1">
          <mxGeometry x="290" y="30" width="120" height="30" as="geometry" />
        </mxCell>
        <mxCell id="YFLFi1sk_Lv0sUjGk2Iw-11" style="edgeStyle=orthogonalEdgeStyle;rounded=0;orthogonalLoop=1;jettySize=auto;html=1;exitX=0.5;exitY=1;exitDx=0;exitDy=0;entryX=0.5;entryY=0;entryDx=0;entryDy=0;" edge="1" parent="WIyWlLk6GJQsqaUBKTNV-1" source="YFLFi1sk_Lv0sUjGk2Iw-3" target="YFLFi1sk_Lv0sUjGk2Iw-4">
          <mxGeometry relative="1" as="geometry" />
        </mxCell>
        <mxCell id="YFLFi1sk_Lv0sUjGk2Iw-3" value="sem1R E" style="rounded=0;whiteSpace=wrap;html=1;" vertex="1" parent="WIyWlLk6GJQsqaUBKTNV-1">
          <mxGeometry x="290" y="70" width="120" height="40" as="geometry" />
        </mxCell>
        <mxCell id="YFLFi1sk_Lv0sUjGk2Iw-12" style="edgeStyle=orthogonalEdgeStyle;rounded=0;orthogonalLoop=1;jettySize=auto;html=1;exitX=0.5;exitY=1;exitDx=0;exitDy=0;entryX=0.5;entryY=0;entryDx=0;entryDy=0;" edge="1" parent="WIyWlLk6GJQsqaUBKTNV-1" source="YFLFi1sk_Lv0sUjGk2Iw-4" target="YFLFi1sk_Lv0sUjGk2Iw-5">
          <mxGeometry relative="1" as="geometry" />
        </mxCell>
        <mxCell id="YFLFi1sk_Lv0sUjGk2Iw-4" value="sem2R E" style="rounded=0;whiteSpace=wrap;html=1;" vertex="1" parent="WIyWlLk6GJQsqaUBKTNV-1">
          <mxGeometry x="290" y="120" width="120" height="40" as="geometry" />
        </mxCell>
        <mxCell id="YFLFi1sk_Lv0sUjGk2Iw-13" style="edgeStyle=orthogonalEdgeStyle;rounded=0;orthogonalLoop=1;jettySize=auto;html=1;exitX=0.5;exitY=1;exitDx=0;exitDy=0;" edge="1" parent="WIyWlLk6GJQsqaUBKTNV-1" source="YFLFi1sk_Lv0sUjGk2Iw-5" target="YFLFi1sk_Lv0sUjGk2Iw-6">
          <mxGeometry relative="1" as="geometry" />
        </mxCell>
        <mxCell id="YFLFi1sk_Lv0sUjGk2Iw-5" value="sem3R E" style="rounded=0;whiteSpace=wrap;html=1;" vertex="1" parent="WIyWlLk6GJQsqaUBKTNV-1">
          <mxGeometry x="290" y="170" width="120" height="40" as="geometry" />
        </mxCell>
        <mxCell id="YFLFi1sk_Lv0sUjGk2Iw-14" style="edgeStyle=orthogonalEdgeStyle;rounded=0;orthogonalLoop=1;jettySize=auto;html=1;exitX=0.5;exitY=1;exitDx=0;exitDy=0;entryX=0.5;entryY=0;entryDx=0;entryDy=0;" edge="1" parent="WIyWlLk6GJQsqaUBKTNV-1" source="YFLFi1sk_Lv0sUjGk2Iw-6" target="YFLFi1sk_Lv0sUjGk2Iw-30">
          <mxGeometry relative="1" as="geometry">
            <Array as="points" />
          </mxGeometry>
        </mxCell>
        <mxCell id="YFLFi1sk_Lv0sUjGk2Iw-6" value="sem4R E" style="rounded=0;whiteSpace=wrap;html=1;" vertex="1" parent="WIyWlLk6GJQsqaUBKTNV-1">
          <mxGeometry x="290" y="220" width="120" height="40" as="geometry" />
        </mxCell>
        <mxCell id="YFLFi1sk_Lv0sUjGk2Iw-19" style="edgeStyle=orthogonalEdgeStyle;rounded=0;orthogonalLoop=1;jettySize=auto;html=1;exitX=0.5;exitY=1;exitDx=0;exitDy=0;entryX=0.5;entryY=0;entryDx=0;entryDy=0;" edge="1" parent="WIyWlLk6GJQsqaUBKTNV-1" source="YFLFi1sk_Lv0sUjGk2Iw-7" target="YFLFi1sk_Lv0sUjGk2Iw-8">
          <mxGeometry relative="1" as="geometry" />
        </mxCell>
        <mxCell id="YFLFi1sk_Lv0sUjGk2Iw-7" value="sem1R A" style="rounded=0;whiteSpace=wrap;html=1;" vertex="1" parent="WIyWlLk6GJQsqaUBKTNV-1">
          <mxGeometry x="290" y="300" width="120" height="40" as="geometry" />
        </mxCell>
        <mxCell id="YFLFi1sk_Lv0sUjGk2Iw-20" style="edgeStyle=orthogonalEdgeStyle;rounded=0;orthogonalLoop=1;jettySize=auto;html=1;exitX=0.5;exitY=1;exitDx=0;exitDy=0;entryX=0.5;entryY=0;entryDx=0;entryDy=0;" edge="1" parent="WIyWlLk6GJQsqaUBKTNV-1" source="YFLFi1sk_Lv0sUjGk2Iw-8" target="YFLFi1sk_Lv0sUjGk2Iw-9">
          <mxGeometry relative="1" as="geometry" />
        </mxCell>
        <mxCell id="YFLFi1sk_Lv0sUjGk2Iw-8" value="sem1V E" style="rounded=0;whiteSpace=wrap;html=1;" vertex="1" parent="WIyWlLk6GJQsqaUBKTNV-1">
          <mxGeometry x="290" y="350" width="120" height="40" as="geometry" />
        </mxCell>
        <mxCell id="YFLFi1sk_Lv0sUjGk2Iw-37" style="edgeStyle=orthogonalEdgeStyle;rounded=0;orthogonalLoop=1;jettySize=auto;html=1;exitX=0.5;exitY=1;exitDx=0;exitDy=0;entryX=0.5;entryY=0;entryDx=0;entryDy=0;" edge="1" parent="WIyWlLk6GJQsqaUBKTNV-1" source="YFLFi1sk_Lv0sUjGk2Iw-9" target="YFLFi1sk_Lv0sUjGk2Iw-31">
          <mxGeometry relative="1" as="geometry" />
        </mxCell>
        <mxCell id="YFLFi1sk_Lv0sUjGk2Iw-9" value="peaton (2)" style="shape=process;whiteSpace=wrap;html=1;backgroundOutline=1;" vertex="1" parent="WIyWlLk6GJQsqaUBKTNV-1">
          <mxGeometry x="290" y="400" width="120" height="40" as="geometry" />
        </mxCell>
        <mxCell id="YFLFi1sk_Lv0sUjGk2Iw-23" style="edgeStyle=orthogonalEdgeStyle;rounded=0;orthogonalLoop=1;jettySize=auto;html=1;exitX=1;exitY=0.5;exitDx=0;exitDy=0;exitPerimeter=0;strokeColor=none;" edge="1" parent="WIyWlLk6GJQsqaUBKTNV-1" source="YFLFi1sk_Lv0sUjGk2Iw-21">
          <mxGeometry relative="1" as="geometry">
            <mxPoint x="300" y="290" as="targetPoint" />
          </mxGeometry>
        </mxCell>
        <mxCell id="YFLFi1sk_Lv0sUjGk2Iw-21" value="BUCLE" style="strokeWidth=2;html=1;shape=mxgraph.flowchart.loop_limit;whiteSpace=wrap;fillColor=#fff2cc;strokeColor=#d6b656;" vertex="1" parent="WIyWlLk6GJQsqaUBKTNV-1">
          <mxGeometry x="120" y="250" width="100" height="60" as="geometry" />
        </mxCell>
        <mxCell id="YFLFi1sk_Lv0sUjGk2Iw-28" style="edgeStyle=orthogonalEdgeStyle;rounded=0;orthogonalLoop=1;jettySize=auto;html=1;exitX=1.01;exitY=0.7;exitDx=0;exitDy=0;exitPerimeter=0;entryX=-0.014;entryY=0.21;entryDx=0;entryDy=0;entryPerimeter=0;" edge="1" parent="WIyWlLk6GJQsqaUBKTNV-1" source="YFLFi1sk_Lv0sUjGk2Iw-21" target="YFLFi1sk_Lv0sUjGk2Iw-30">
          <mxGeometry relative="1" as="geometry">
            <mxPoint x="276.96000000000004" y="313.03999999999996" as="targetPoint" />
          </mxGeometry>
        </mxCell>
        <mxCell id="YFLFi1sk_Lv0sUjGk2Iw-29" value="" style="curved=1;endArrow=classic;html=1;rounded=0;exitX=0;exitY=0.5;exitDx=0;exitDy=0;" edge="1" parent="WIyWlLk6GJQsqaUBKTNV-1" source="YFLFi1sk_Lv0sUjGk2Iw-6">
          <mxGeometry width="50" height="50" relative="1" as="geometry">
            <mxPoint x="240" y="250" as="sourcePoint" />
            <mxPoint x="170" y="240" as="targetPoint" />
            <Array as="points">
              <mxPoint x="280" y="210" />
              <mxPoint x="220" y="200" />
            </Array>
          </mxGeometry>
        </mxCell>
        <mxCell id="YFLFi1sk_Lv0sUjGk2Iw-30" value="" style="rounded=0;whiteSpace=wrap;html=1;fillColor=none;strokeColor=#6c8ebf;" vertex="1" parent="WIyWlLk6GJQsqaUBKTNV-1">
          <mxGeometry x="280" y="290" width="140" height="410" as="geometry" />
        </mxCell>
        <mxCell id="YFLFi1sk_Lv0sUjGk2Iw-38" style="edgeStyle=orthogonalEdgeStyle;rounded=0;orthogonalLoop=1;jettySize=auto;html=1;exitX=0.5;exitY=1;exitDx=0;exitDy=0;entryX=0.5;entryY=0;entryDx=0;entryDy=0;" edge="1" parent="WIyWlLk6GJQsqaUBKTNV-1" source="YFLFi1sk_Lv0sUjGk2Iw-31" target="YFLFi1sk_Lv0sUjGk2Iw-32">
          <mxGeometry relative="1" as="geometry" />
        </mxCell>
        <mxCell id="YFLFi1sk_Lv0sUjGk2Iw-31" value="sem1V A" style="rounded=0;whiteSpace=wrap;html=1;" vertex="1" parent="WIyWlLk6GJQsqaUBKTNV-1">
          <mxGeometry x="290" y="450" width="120" height="40" as="geometry" />
        </mxCell>
        <mxCell id="YFLFi1sk_Lv0sUjGk2Iw-32" value="sem1A E" style="rounded=0;whiteSpace=wrap;html=1;" vertex="1" parent="WIyWlLk6GJQsqaUBKTNV-1">
          <mxGeometry x="290" y="500" width="120" height="40" as="geometry" />
        </mxCell>
        <mxCell id="YFLFi1sk_Lv0sUjGk2Iw-40" style="edgeStyle=orthogonalEdgeStyle;rounded=0;orthogonalLoop=1;jettySize=auto;html=1;exitX=0.5;exitY=1;exitDx=0;exitDy=0;exitPerimeter=0;entryX=0.5;entryY=0;entryDx=0;entryDy=0;" edge="1" parent="WIyWlLk6GJQsqaUBKTNV-1" source="YFLFi1sk_Lv0sUjGk2Iw-33" target="YFLFi1sk_Lv0sUjGk2Iw-34">
          <mxGeometry relative="1" as="geometry" />
        </mxCell>
        <mxCell id="YFLFi1sk_Lv0sUjGk2Iw-33" value="Delay 3s" style="strokeWidth=2;html=1;shape=mxgraph.flowchart.delay;whiteSpace=wrap;" vertex="1" parent="WIyWlLk6GJQsqaUBKTNV-1">
          <mxGeometry x="320" y="550" width="60" height="35" as="geometry" />
        </mxCell>
        <mxCell id="YFLFi1sk_Lv0sUjGk2Iw-41" style="edgeStyle=orthogonalEdgeStyle;rounded=0;orthogonalLoop=1;jettySize=auto;html=1;exitX=0.5;exitY=1;exitDx=0;exitDy=0;entryX=0.5;entryY=0;entryDx=0;entryDy=0;" edge="1" parent="WIyWlLk6GJQsqaUBKTNV-1" source="YFLFi1sk_Lv0sUjGk2Iw-34" target="YFLFi1sk_Lv0sUjGk2Iw-35">
          <mxGeometry relative="1" as="geometry" />
        </mxCell>
        <mxCell id="YFLFi1sk_Lv0sUjGk2Iw-34" value="sem1A A" style="rounded=0;whiteSpace=wrap;html=1;" vertex="1" parent="WIyWlLk6GJQsqaUBKTNV-1">
          <mxGeometry x="290" y="600" width="120" height="40" as="geometry" />
        </mxCell>
        <mxCell id="YFLFi1sk_Lv0sUjGk2Iw-35" value="sem1R E" style="rounded=0;whiteSpace=wrap;html=1;" vertex="1" parent="WIyWlLk6GJQsqaUBKTNV-1">
          <mxGeometry x="290" y="650" width="120" height="40" as="geometry" />
        </mxCell>
        <mxCell id="YFLFi1sk_Lv0sUjGk2Iw-39" style="edgeStyle=orthogonalEdgeStyle;rounded=0;orthogonalLoop=1;jettySize=auto;html=1;exitX=0.5;exitY=1;exitDx=0;exitDy=0;entryX=0.5;entryY=0;entryDx=0;entryDy=0;entryPerimeter=0;" edge="1" parent="WIyWlLk6GJQsqaUBKTNV-1" source="YFLFi1sk_Lv0sUjGk2Iw-32" target="YFLFi1sk_Lv0sUjGk2Iw-33">
          <mxGeometry relative="1" as="geometry" />
        </mxCell>
        <mxCell id="YFLFi1sk_Lv0sUjGk2Iw-43" value="R" style="ellipse;whiteSpace=wrap;html=1;aspect=fixed;fillColor=#f8cecc;strokeColor=#b85450;" vertex="1" parent="WIyWlLk6GJQsqaUBKTNV-1">
          <mxGeometry x="627" y="430" width="40" height="40" as="geometry" />
        </mxCell>
        <mxCell id="YFLFi1sk_Lv0sUjGk2Iw-44" value="A" style="ellipse;whiteSpace=wrap;html=1;aspect=fixed;fillColor=#fff2cc;strokeColor=#d6b656;" vertex="1" parent="WIyWlLk6GJQsqaUBKTNV-1">
          <mxGeometry x="627" y="490" width="40" height="40" as="geometry" />
        </mxCell>
        <mxCell id="YFLFi1sk_Lv0sUjGk2Iw-45" value="V" style="ellipse;whiteSpace=wrap;html=1;aspect=fixed;fillColor=#d5e8d4;strokeColor=#82b366;" vertex="1" parent="WIyWlLk6GJQsqaUBKTNV-1">
          <mxGeometry x="627" y="547.5" width="40" height="40" as="geometry" />
        </mxCell>
        <mxCell id="YFLFi1sk_Lv0sUjGk2Iw-46" value="27" style="ellipse;whiteSpace=wrap;html=1;aspect=fixed;fillColor=#d5e8d4;strokeColor=#82b366;" vertex="1" parent="WIyWlLk6GJQsqaUBKTNV-1">
          <mxGeometry x="627" y="600" width="40" height="40" as="geometry" />
        </mxCell>
        <mxCell id="YFLFi1sk_Lv0sUjGk2Iw-47" value="" style="ellipse;whiteSpace=wrap;html=1;aspect=fixed;fillColor=#f8cecc;strokeColor=#b85450;" vertex="1" parent="WIyWlLk6GJQsqaUBKTNV-1">
          <mxGeometry x="627" y="650" width="40" height="40" as="geometry" />
        </mxCell>
        <mxCell id="YFLFi1sk_Lv0sUjGk2Iw-53" value="R" style="ellipse;whiteSpace=wrap;html=1;aspect=fixed;fillColor=#f8cecc;strokeColor=#b85450;" vertex="1" parent="WIyWlLk6GJQsqaUBKTNV-1">
          <mxGeometry x="677" y="430" width="40" height="40" as="geometry" />
        </mxCell>
        <mxCell id="YFLFi1sk_Lv0sUjGk2Iw-54" value="A" style="ellipse;whiteSpace=wrap;html=1;aspect=fixed;fillColor=#fff2cc;strokeColor=#d6b656;" vertex="1" parent="WIyWlLk6GJQsqaUBKTNV-1">
          <mxGeometry x="677" y="490" width="40" height="40" as="geometry" />
        </mxCell>
        <mxCell id="YFLFi1sk_Lv0sUjGk2Iw-55" value="V" style="ellipse;whiteSpace=wrap;html=1;aspect=fixed;fillColor=#d5e8d4;strokeColor=#82b366;" vertex="1" parent="WIyWlLk6GJQsqaUBKTNV-1">
          <mxGeometry x="677" y="547.5" width="40" height="40" as="geometry" />
        </mxCell>
        <mxCell id="YFLFi1sk_Lv0sUjGk2Iw-56" value="27" style="ellipse;whiteSpace=wrap;html=1;aspect=fixed;fillColor=#d5e8d4;strokeColor=#82b366;" vertex="1" parent="WIyWlLk6GJQsqaUBKTNV-1">
          <mxGeometry x="677" y="600" width="40" height="40" as="geometry" />
        </mxCell>
        <mxCell id="YFLFi1sk_Lv0sUjGk2Iw-57" value="" style="ellipse;whiteSpace=wrap;html=1;aspect=fixed;fillColor=#f8cecc;strokeColor=#b85450;" vertex="1" parent="WIyWlLk6GJQsqaUBKTNV-1">
          <mxGeometry x="677" y="650" width="40" height="40" as="geometry" />
        </mxCell>
        <mxCell id="YFLFi1sk_Lv0sUjGk2Iw-58" value="R" style="ellipse;whiteSpace=wrap;html=1;aspect=fixed;fillColor=#f8cecc;strokeColor=#b85450;" vertex="1" parent="WIyWlLk6GJQsqaUBKTNV-1">
          <mxGeometry x="727" y="430" width="40" height="40" as="geometry" />
        </mxCell>
        <mxCell id="YFLFi1sk_Lv0sUjGk2Iw-59" value="A" style="ellipse;whiteSpace=wrap;html=1;aspect=fixed;fillColor=#fff2cc;strokeColor=#d6b656;" vertex="1" parent="WIyWlLk6GJQsqaUBKTNV-1">
          <mxGeometry x="727" y="490" width="40" height="40" as="geometry" />
        </mxCell>
        <mxCell id="YFLFi1sk_Lv0sUjGk2Iw-60" value="V" style="ellipse;whiteSpace=wrap;html=1;aspect=fixed;fillColor=#d5e8d4;strokeColor=#82b366;" vertex="1" parent="WIyWlLk6GJQsqaUBKTNV-1">
          <mxGeometry x="727" y="547.5" width="40" height="40" as="geometry" />
        </mxCell>
        <mxCell id="YFLFi1sk_Lv0sUjGk2Iw-61" value="27" style="ellipse;whiteSpace=wrap;html=1;aspect=fixed;fillColor=#d5e8d4;strokeColor=#82b366;" vertex="1" parent="WIyWlLk6GJQsqaUBKTNV-1">
          <mxGeometry x="727" y="600" width="40" height="40" as="geometry" />
        </mxCell>
        <mxCell id="YFLFi1sk_Lv0sUjGk2Iw-62" value="" style="ellipse;whiteSpace=wrap;html=1;aspect=fixed;fillColor=#f8cecc;strokeColor=#b85450;" vertex="1" parent="WIyWlLk6GJQsqaUBKTNV-1">
          <mxGeometry x="727" y="650" width="40" height="40" as="geometry" />
        </mxCell>
        <mxCell id="YFLFi1sk_Lv0sUjGk2Iw-63" value="R" style="ellipse;whiteSpace=wrap;html=1;aspect=fixed;fillColor=#f8cecc;strokeColor=#b85450;" vertex="1" parent="WIyWlLk6GJQsqaUBKTNV-1">
          <mxGeometry x="777" y="430" width="40" height="40" as="geometry" />
        </mxCell>
        <mxCell id="YFLFi1sk_Lv0sUjGk2Iw-64" value="A" style="ellipse;whiteSpace=wrap;html=1;aspect=fixed;fillColor=#fff2cc;strokeColor=#d6b656;" vertex="1" parent="WIyWlLk6GJQsqaUBKTNV-1">
          <mxGeometry x="777" y="490" width="40" height="40" as="geometry" />
        </mxCell>
        <mxCell id="YFLFi1sk_Lv0sUjGk2Iw-65" value="V" style="ellipse;whiteSpace=wrap;html=1;aspect=fixed;fillColor=#d5e8d4;strokeColor=#82b366;" vertex="1" parent="WIyWlLk6GJQsqaUBKTNV-1">
          <mxGeometry x="777" y="547.5" width="40" height="40" as="geometry" />
        </mxCell>
        <mxCell id="YFLFi1sk_Lv0sUjGk2Iw-66" value="27" style="ellipse;whiteSpace=wrap;html=1;aspect=fixed;fillColor=#d5e8d4;strokeColor=#82b366;" vertex="1" parent="WIyWlLk6GJQsqaUBKTNV-1">
          <mxGeometry x="777" y="600" width="40" height="40" as="geometry" />
        </mxCell>
        <mxCell id="YFLFi1sk_Lv0sUjGk2Iw-67" value="" style="ellipse;whiteSpace=wrap;html=1;aspect=fixed;fillColor=#f8cecc;strokeColor=#b85450;" vertex="1" parent="WIyWlLk6GJQsqaUBKTNV-1">
          <mxGeometry x="777" y="650" width="40" height="40" as="geometry" />
        </mxCell>
        <mxCell id="YFLFi1sk_Lv0sUjGk2Iw-68" value="1&lt;span style=&quot;color: rgba(0, 0, 0, 0); font-family: monospace; font-size: 0px; text-align: start; white-space: nowrap;&quot;&gt;%3CmxGraphModel%3E%3Croot%3E%3CmxCell%20id%3D%220%22%2F%3E%3CmxCell%20id%3D%221%22%20parent%3D%220%22%2F%3E%3CmxCell%20id%3D%222%22%20value%3D%22R%22%20style%3D%22ellipse%3BwhiteSpace%3Dwrap%3Bhtml%3D1%3Baspect%3Dfixed%3BfillColor%3D%23f8cecc%3BstrokeColor%3D%23b85450%3B%22%20vertex%3D%221%22%20parent%3D%221%22%3E%3CmxGeometry%20x%3D%22540%22%20y%3D%22430%22%20width%3D%2240%22%20height%3D%2240%22%20as%3D%22geometry%22%2F%3E%3C%2FmxCell%3E%3CmxCell%20id%3D%223%22%20value%3D%22A%22%20style%3D%22ellipse%3BwhiteSpace%3Dwrap%3Bhtml%3D1%3Baspect%3Dfixed%3BfillColor%3D%23fff2cc%3BstrokeColor%3D%23d6b656%3B%22%20vertex%3D%221%22%20parent%3D%221%22%3E%3CmxGeometry%20x%3D%22540%22%20y%3D%22490%22%20width%3D%2240%22%20height%3D%2240%22%20as%3D%22geometry%22%2F%3E%3C%2FmxCell%3E%3CmxCell%20id%3D%224%22%20value%3D%22V%22%20style%3D%22ellipse%3BwhiteSpace%3Dwrap%3Bhtml%3D1%3Baspect%3Dfixed%3BfillColor%3D%23d5e8d4%3BstrokeColor%3D%2382b366%3B%22%20vertex%3D%221%22%20parent%3D%221%22%3E%3CmxGeometry%20x%3D%22540%22%20y%3D%22547.5%22%20width%3D%2240%22%20height%3D%2240%22%20as%3D%22geometry%22%2F%3E%3C%2FmxCell%3E%3CmxCell%20id%3D%225%22%20value%3D%2227%22%20style%3D%22ellipse%3BwhiteSpace%3Dwrap%3Bhtml%3D1%3Baspect%3Dfixed%3BfillColor%3D%23d5e8d4%3BstrokeColor%3D%2382b366%3B%22%20vertex%3D%221%22%20parent%3D%221%22%3E%3CmxGeometry%20x%3D%22540%22%20y%3D%22600%22%20width%3D%2240%22%20height%3D%2240%22%20as%3D%22geometry%22%2F%3E%3C%2FmxCell%3E%3CmxCell%20id%3D%226%22%20value%3D%22%22%20style%3D%22ellipse%3BwhiteSpace%3Dwrap%3Bhtml%3D1%3Baspect%3Dfixed%3BfillColor%3D%23f8cecc%3BstrokeColor%3D%23b85450%3B%22%20vertex%3D%221%22%20parent%3D%221%22%3E%3CmxGeometry%20x%3D%22540%22%20y%3D%22650%22%20width%3D%2240%22%20height%3D%2240%22%20as%3D%22geometry%22%2F%3E%3C%2FmxCell%3E%3C%2Froot%3E%3C%2FmxGraphModel%3E&lt;/span&gt;" style="text;html=1;align=center;verticalAlign=middle;whiteSpace=wrap;rounded=0;" vertex="1" parent="WIyWlLk6GJQsqaUBKTNV-1">
          <mxGeometry x="617" y="400" width="60" height="30" as="geometry" />
        </mxCell>
        <mxCell id="YFLFi1sk_Lv0sUjGk2Iw-69" value="2" style="text;html=1;align=center;verticalAlign=middle;whiteSpace=wrap;rounded=0;" vertex="1" parent="WIyWlLk6GJQsqaUBKTNV-1">
          <mxGeometry x="667" y="400" width="60" height="30" as="geometry" />
        </mxCell>
        <mxCell id="YFLFi1sk_Lv0sUjGk2Iw-70" value="3" style="text;html=1;align=center;verticalAlign=middle;whiteSpace=wrap;rounded=0;" vertex="1" parent="WIyWlLk6GJQsqaUBKTNV-1">
          <mxGeometry x="717" y="400" width="60" height="30" as="geometry" />
        </mxCell>
        <mxCell id="YFLFi1sk_Lv0sUjGk2Iw-71" value="4" style="text;html=1;align=center;verticalAlign=middle;whiteSpace=wrap;rounded=0;" vertex="1" parent="WIyWlLk6GJQsqaUBKTNV-1">
          <mxGeometry x="767" y="400" width="60" height="30" as="geometry" />
        </mxCell>
        <mxCell id="YFLFi1sk_Lv0sUjGk2Iw-72" value="sem P" style="shape=process;whiteSpace=wrap;html=1;backgroundOutline=1;" vertex="1" parent="WIyWlLk6GJQsqaUBKTNV-1">
          <mxGeometry x="460" y="310" width="90" height="40" as="geometry" />
        </mxCell>
        <mxCell id="YFLFi1sk_Lv0sUjGk2Iw-73" value="" style="curved=1;endArrow=classic;html=1;rounded=0;exitX=0;exitY=0.5;exitDx=0;exitDy=0;entryX=0.5;entryY=0;entryDx=0;entryDy=0;" edge="1" parent="WIyWlLk6GJQsqaUBKTNV-1" target="YFLFi1sk_Lv0sUjGk2Iw-72">
          <mxGeometry width="50" height="50" relative="1" as="geometry">
            <mxPoint x="420" y="320" as="sourcePoint" />
            <mxPoint x="540" y="320" as="targetPoint" />
            <Array as="points">
              <mxPoint x="430" y="270" />
              <mxPoint x="490" y="250" />
            </Array>
          </mxGeometry>
        </mxCell>
        <mxCell id="YFLFi1sk_Lv0sUjGk2Iw-74" value="3,4" style="shape=process;whiteSpace=wrap;html=1;backgroundOutline=1;" vertex="1" parent="WIyWlLk6GJQsqaUBKTNV-1">
          <mxGeometry x="460" y="360" width="90" height="40" as="geometry" />
        </mxCell>
        <mxCell id="YFLFi1sk_Lv0sUjGk2Iw-75" value="1,2" style="shape=process;whiteSpace=wrap;html=1;backgroundOutline=1;" vertex="1" parent="WIyWlLk6GJQsqaUBKTNV-1">
          <mxGeometry x="460" y="410" width="90" height="40" as="geometry" />
        </mxCell>
        <mxCell id="YFLFi1sk_Lv0sUjGk2Iw-76" value="2,3" style="shape=process;whiteSpace=wrap;html=1;backgroundOutline=1;" vertex="1" parent="WIyWlLk6GJQsqaUBKTNV-1">
          <mxGeometry x="460" y="460" width="90" height="40" as="geometry" />
        </mxCell>
        <mxCell id="YFLFi1sk_Lv0sUjGk2Iw-77" value="4,1" style="shape=process;whiteSpace=wrap;html=1;backgroundOutline=1;" vertex="1" parent="WIyWlLk6GJQsqaUBKTNV-1">
          <mxGeometry x="460" y="510" width="90" height="40" as="geometry" />
        </mxCell>
        <mxCell id="YFLFi1sk_Lv0sUjGk2Iw-78" value="" style="curved=1;endArrow=classic;html=1;rounded=0;exitX=0.4;exitY=1.075;exitDx=0;exitDy=0;exitPerimeter=0;" edge="1" parent="WIyWlLk6GJQsqaUBKTNV-1" source="YFLFi1sk_Lv0sUjGk2Iw-77">
          <mxGeometry width="50" height="50" relative="1" as="geometry">
            <mxPoint x="480" y="580" as="sourcePoint" />
            <mxPoint x="170" y="320" as="targetPoint" />
            <Array as="points">
              <mxPoint x="500" y="860" />
              <mxPoint x="190" y="910" />
              <mxPoint x="160" y="430" />
            </Array>
          </mxGeometry>
        </mxCell>
      </root>
    </mxGraphModel>
  </diagram>
</mxfile>
